P1
4 6
1111
1001
1001
1001
1001
1111